<?xml version="1.0" encoding="utf-8"?>
<!-- Generator: Adobe Illustrator 23.0.6, SVG Export Plug-In . SVG Version: 6.00 Build 0)  -->
<svg version="1.1" id="Layer_1" focusable="false" xmlns="http://www.w3.org/2000/svg" xmlns:xlink="http://www.w3.org/1999/xlink"
	 x="0px" y="0px" viewBox="0 0 640 512" style="enable-background:new 0 0 640 512;" xml:space="preserve">
<style type="text/css">
	.st0{fill:#555555;}
</style>
<path class="st0" d="M624,208h-64v-64c0-8.8-7.2-16-16-16h-32c-8.8,0-16,7.2-16,16v64h-64c-8.8,0-16,7.2-16,16v32
	c0,8.8,7.2,16,16,16h64v64c0,8.8,7.2,16,16,16h32c8.8,0,16-7.2,16-16v-64h64c8.8,0,16-7.2,16-16v-32C640,215.2,632.8,208,624,208z
	 M224,256c70.7,0,128-57.3,128-128S294.7,0,224,0S96,57.3,96,128S153.3,256,224,256z M313.6,288h-16.7c-22.2,10.2-46.9,16-72.9,16
	s-50.6-5.8-72.9-16h-16.7C60.2,288,0,348.2,0,422.4V464c0,26.5,21.5,48,48,48h352c26.5,0,48-21.5,48-48v-41.6
	C448,348.2,387.8,288,313.6,288z"/>
</svg>
